<svg width="256" height="256" viewBox="0 0 200 200" xmlns="http://www.w3.org/2000/svg">
  <defs>
    <path id="topCurve" d="M 50 70 A 60 60 0 0 1 150 70" />
  </defs>
  <circle cx="100" cy="100" r="95" fill="#f03a3a" />
  <circle
    cx="100"
    cy="100"
    r="85"
    fill="none"
    stroke="#ffffff"
    stroke-width="6"
    stroke-dasharray="400 100"
    stroke-dashoffset="190"
    stroke-linecap="round"
  />
  <text fill="#ffffff" font-size="16" font-weight="700" letter-spacing="1" font-family="Georgia, serif">
    <textPath href="#topCurve" startOffset="50%" text-anchor="middle">Desde 2005</textPath>
  </text>
  <text x="100" y="90" fill="#ffffff" font-size="28" text-anchor="middle" font-family="Georgia, serif" transform="rotate(-5 100 90)">Tudo na</text>
  <text x="100" y="135" fill="#ffffff" font-size="48" text-anchor="middle" font-family="Georgia, serif" transform="rotate(-5 100 135)">Brasa</text>
  <path d="M 45 145 Q 100 165 165 125 Q 100 155 45 145 Z" fill="#ffffff" />
  <path d="M 20 175 L 35 155 L 45 160 Z" fill="#b5952f" />
  <path d="M 180 175 L 165 155 L 155 160 Z" fill="#b5952f" />
  <path d="M 30 165 Q 100 145 170 165 L 165 185 Q 100 165 35 185 Z" fill="#d4af37" />
  <text x="100" y="178" fill="#1a1a1a" font-size="16" font-weight="700" text-anchor="middle" font-family="Georgia, serif" transform="rotate(-3 100 178)">Carnes e Pizzas</text>
</svg>
