<svg width="1200" height="630" viewBox="0 0 1200 630" xmlns="http://www.w3.org/2000/svg">
  <defs>
    <linearGradient id="bg" x1="0%" x2="100%" y1="0%" y2="100%">
      <stop offset="0%" stop-color="#0a0a0a" />
      <stop offset="100%" stop-color="#1f1b17" />
    </linearGradient>
    <radialGradient id="glow" cx="72%" cy="18%" r="70%">
      <stop offset="0%" stop-color="#ff4500" stop-opacity="0.45" />
      <stop offset="100%" stop-color="#ff4500" stop-opacity="0" />
    </radialGradient>
  </defs>

  <rect width="1200" height="630" fill="url(#bg)" />
  <rect width="1200" height="630" fill="url(#glow)" />
  <circle cx="170" cy="140" r="105" fill="#f03a3a" />
  <circle cx="170" cy="140" r="90" fill="none" stroke="#fff" stroke-width="7" stroke-dasharray="400 100" stroke-dashoffset="190" />
  <text x="170" y="105" fill="#fff" font-size="20" text-anchor="middle" font-family="Georgia, serif">Desde 2005</text>
  <text x="170" y="145" fill="#fff" font-size="30" text-anchor="middle" font-family="Georgia, serif">Tudo na</text>
  <text x="170" y="188" fill="#fff" font-size="56" text-anchor="middle" font-family="Georgia, serif">Brasa</text>
  <path d="M 110 197 Q 170 215 236 170 Q 170 205 110 197 Z" fill="#fff" />

  <text x="320" y="170" fill="#fff" font-size="34" font-family="Arial, sans-serif" letter-spacing="8">CASTELO . BELO HORIZONTE</text>
  <text x="320" y="280" fill="#fff" font-size="82" font-weight="700" font-family="Georgia, serif">Tudo na <tspan fill="#ff6a1c">Brasa</tspan></text>
  <text x="320" y="355" fill="#d9d2cb" font-size="38" font-family="Arial, sans-serif">Churrascaria, pizzaria e hamburgueria com delivery, reservas</text>
  <text x="320" y="405" fill="#d9d2cb" font-size="38" font-family="Arial, sans-serif">e ambiente para familias no coracao do bairro Castelo.</text>

  <rect x="320" y="465" width="235" height="78" rx="22" fill="#111" stroke="#ffffff20" />
  <text x="350" y="505" fill="#ffcf4d" font-size="28" font-family="Arial, sans-serif">4,6 no Google</text>
  <text x="350" y="534" fill="#d9d2cb" font-size="22" font-family="Arial, sans-serif">18.599 avaliacoes reais</text>

  <rect x="585" y="465" width="240" height="78" rx="22" fill="#111" stroke="#ffffff20" />
  <text x="615" y="505" fill="#fff" font-size="28" font-family="Arial, sans-serif">Av. dos Engenheiros, 1104</text>
  <text x="615" y="534" fill="#d9d2cb" font-size="22" font-family="Arial, sans-serif">Castelo . Belo Horizonte</text>

  <rect x="855" y="465" width="210" height="78" rx="22" fill="#25D366" />
  <text x="885" y="505" fill="#fff" font-size="28" font-weight="700" font-family="Arial, sans-serif">Peça no WhatsApp</text>
  <text x="885" y="534" fill="#e8fff0" font-size="22" font-family="Arial, sans-serif">Delivery e reservas</text>
</svg>
